<?xml version="1.0" encoding="UTF-8"?>
<svg width="1443px" height="909px" viewBox="0 0 1443 909" version="1.1" xmlns="http://www.w3.org/2000/svg" xmlns:xlink="http://www.w3.org/1999/xlink">
    <!-- Generator: Sketch 59 (86127) - https://sketch.com -->
    <title>Group 34</title>
    <desc>Created with Sketch.</desc>
    <defs>
        <path d="M-3.19744231e-14,426.130999 L-3.19744231e-14,-1.42108547e-14 L704.908288,-1.42108547e-14 L704.908288,426.130999 L672.867002,426.130999 C672.867002,602.640238 529.413279,745.729248 352.454144,745.729248 C175.495009,745.729248 32.0412858,602.640238 32.0412858,426.130999 L32.0412858,426.130999 L-3.19744231e-14,426.130999 Z" id="path-1"></path>
        <path d="M267.010715,0 C349.591645,-1.51698707e-14 416.536716,66.9450707 416.536716,149.526001 L416.537075,165.568838 C431.690895,168.111345 443.237787,181.290736 443.237787,197.167048 L443.237787,234.290589 C443.237787,250.464515 431.253926,263.839461 415.681112,266.020517 C410.058526,318.752634 377.019653,363.290361 331.095375,385.10748 L331.093,434.12 L349.341433,434.120955 C451.337379,434.120955 534.02143,516.805007 534.02143,618.800953 L534.02143,649.849774 L0,649.849774 L0,618.800953 C-1.24909009e-14,516.805007 82.6840514,434.120955 184.679998,434.120955 L202.928,434.12 L202.927053,385.107954 C157.002256,363.291006 123.962945,318.753016 118.335925,266.020789 C102.767505,263.839461 90.7836432,250.464515 90.7836432,234.290589 L90.7836432,197.167048 C90.7836432,181.290736 102.330535,168.111345 117.484356,165.568838 L117.484715,149.526001 C117.484715,66.9450707 184.429785,1.51698707e-14 267.010715,0 Z" id="path-3"></path>
        <path d="M416.690677,34.8347521 C463.474343,40.0580787 499.75033,54.1193321 502.048419,89.8274834 C570.900769,116.659734 619.691868,183.614564 619.691868,261.965166 L619.691868,293.155847 L85.4747404,293.155847 L85.4747404,261.965166 C85.4747404,183.614633 134.265753,116.659852 203.121748,89.8268527 C205.416279,54.1193321 241.692266,40.0580787 288.475932,34.8347521 L288.477249,85.1369215 C288.477249,120.541718 317.178508,149.242977 352.583304,149.242977 C387.988101,149.242977 416.68936,120.541718 416.68936,85.1369215 L416.68936,85.1369215 Z" id="path-5"></path>
        <path d="M93.6543443,40.1770933 C96.4755295,65.3851835 117.94448,84.9854857 144.010395,84.9854857 C170.156831,84.9854857 191.677856,65.2639025 194.392057,39.9433233 C194.610497,37.9055078 192.325197,34.5253535 189.461055,34.5253535 C149.740819,34.5253535 119.309736,34.5253535 98.9053378,34.5253535 C96.0245764,34.5253535 93.3720887,37.6550597 93.6543443,40.1770933 Z" id="path-7"></path>
        <rect id="path-9" x="0" y="0" width="704.908288" height="745.729248"></rect>
        <path d="M481.055911,106.388999 C473.686467,98.8735949 465.130016,92.4946667 456.807572,86.0978554 C454.97124,84.6877671 453.105434,83.3116568 451.310187,81.847919 C450.902014,81.515292 446.721143,78.5270136 446.220974,77.4271984 C445.016998,74.7813828 445.714554,76.8415244 445.880681,73.68425 C446.090573,69.6918314 454.247783,58.415596 448.160913,55.829689 C445.483226,54.6923191 440.706619,57.7190463 438.137897,58.7187158 C433.113885,60.675135 428.028245,62.3436352 422.834533,63.7823365 C425.322871,58.8340622 430.067324,48.9285721 421.150038,51.5797527 C414.203057,53.6452593 407.72945,58.9556678 400.74853,61.4539472 C403.058236,57.6752326 412.295272,45.9662243 403.948714,45.3117001 C401.351411,45.1078319 393.793511,49.970267 390.997034,51.0074911 C382.621001,54.1146926 374.065444,56.122973 365.271413,57.7047398 C335.369387,63.0831044 300.402263,61.5496222 272.736703,75.1363638 C251.408098,85.6105389 230.347439,101.862768 218.026329,122.558071 C206.150904,142.505857 201.709231,164.336742 199.223573,187.195015 C197.399745,203.970327 197.251481,221.310747 198.104446,238.146861 C198.383112,243.662926 199.004749,269.090117 207.034237,261.389622 C211.03469,257.552787 211.005216,242.059699 212.012698,236.815459 C214.017837,226.381521 215.947951,215.901086 219.29104,205.80067 C225.182308,188.001546 232.131968,179.701917 246.808336,167.443001 C256.226683,159.577087 262.840516,148.94554 271.85337,141.009881 C275.902054,137.445764 272.812622,137.81684 279.321955,138.284485 C283.694855,138.598335 288.087405,138.718152 292.469236,138.832605 C302.605683,139.095487 312.758206,139.028425 322.897333,139.064192 C343.316704,139.137513 363.640507,139.425432 384.040229,138.3587 C393.105779,137.884796 402.196338,137.628173 411.237774,136.79124 C416.288581,136.323595 425.250525,133.093 429.408174,135.561772 C433.213026,137.820417 437.164355,145.195438 439.896525,148.215906 C446.351375,155.353975 454.047715,160.805661 461.595791,166.658824 C477.335016,178.863196 485.28144,183.531647 490.06162,202.604052 C494.823937,221.605819 493.488666,239.234617 499.383507,257.934158 C500.420463,261.22198 503.16335,266.889158 506.544845,261.809442 C507.172735,260.866105 507.01018,255.680178 507.01018,252.696176 C507.01018,240.650929 510.066566,231.613243 510.028519,219.489345 C509.878109,182.626758 508.683958,134.559469 481.055911,106.388999 Z" id="path-11"></path>
    </defs>
    <g id="Website" stroke="none" stroke-width="1" fill="none" fill-rule="evenodd">
        <g id="Group-34" transform="translate(0.000000, 6.000000)">
            <g id="Group-30" transform="translate(151.000000, 7.000000)">
                <path d="M1019.32985,126.849999 C1048.41287,126.849999 1072.04438,150.180617 1072.5141,179.153204 L1072.52123,180.032869 C1072.52123,209.404958 1048.71055,233.21574 1019.32985,233.21574 L970.595141,233.21574 C941.215418,233.21574 917.404523,257.026523 917.404523,286.398611 C917.404523,315.777158 941.218774,339.581482 970.595141,339.581482 L970.595141,339.581482 L1012.247,339.580999 L1012.24759,339.698115 C1039.67799,341.505708 1061.42711,364.100979 1061.87753,391.884687 L1061.88466,392.764353 C1061.88466,420.943222 1039.96811,444.003454 1012.24774,445.83056 L1012.247,445.946999 L1081.38171,445.947224 C1110.4619,445.947224 1134.09111,469.277842 1134.56079,498.250429 L1134.56791,499.130095 C1134.56791,528.502183 1110.75999,552.312966 1081.38171,552.312966 L996.283119,552.312966 C966.921033,552.312966 943.109577,576.123748 943.109577,605.495836 C943.109577,634.874383 966.916182,658.678707 996.283119,658.678707 L996.283119,658.678707 L1086.7,658.678707 C1115.78019,658.678707 1139.4094,682.009325 1139.87907,710.981912 L1139.8862,711.861578 C1139.8862,741.233667 1116.07828,765.044449 1086.7,765.044449 L944.88239,765.044449 C973.96073,765.044449 997.588439,788.375067 998.058085,817.347654 L998.06521,818.22732 C998.06521,847.599408 974.253425,871.410191 944.88239,871.410191 L132.957126,871.410191 C103.585066,871.410191 79.7743063,847.605867 79.7743063,818.22732 C79.7743063,788.855231 103.586091,765.044449 132.957126,765.044449 L209.188676,765.044449 C238.558743,765.044449 262.36883,741.233667 262.36883,711.861578 L262.36883,711.861578 L262.361705,710.981912 C261.892082,682.009325 238.265558,658.678707 209.188676,658.678707 L209.188676,658.678707 L53.1861977,658.678707 C23.8122718,658.678707 1.13686838e-13,634.874383 1.13686838e-13,605.495836 C1.13686838e-13,576.123748 23.8079208,552.312966 53.1861977,552.312966 L98.3960589,552.312966 C69.0196914,552.312966 45.2054402,528.508641 45.2054402,499.130095 C45.2054402,469.758006 69.0163361,445.947224 98.3960589,445.947224 L284.522899,445.947224 C313.899301,445.947224 337.71123,422.136441 337.71123,392.764353 L337.71123,392.764353 L337.704104,391.884687 C337.234409,362.9121 313.604252,339.581482 284.522899,339.581482 L284.522899,339.581482 L156.006415,339.581482 C126.632489,339.581482 102.820217,315.777158 102.820217,286.398611 C102.820217,257.026523 126.628138,233.21574 156.006415,233.21574 L87.3170514,233.21574 C57.9402657,233.21574 34.1256755,209.411416 34.1256755,180.032869 C34.1256755,150.660781 57.9363531,126.849999 87.3170514,126.849999 L1019.32985,126.849999 Z" id="Combined-Shape" fill="#E2D7F4" opacity="0.835389459"></path>
                <g id="Avataaar/Circle" transform="translate(217.048032, 0.000000)">
                    <mask id="mask-2" fill="white">
                        <use xlink:href="#path-1"></use>
                    </mask>
                    <g id="Mask"></g>
                    <g id="Avataaar" mask="url(#mask-2)">
                        <g transform="translate(0.000000, -5.973799)">
                            <g id="Body" stroke-width="1" fill-rule="evenodd" transform="translate(85.443429, 95.879475)">
                                <mask id="mask-4" fill="white">
                                    <use xlink:href="#path-3"></use>
                                </mask>
                                <use fill="#D0C6AC" xlink:href="#path-3"></use>
                                <g id="Skin/ðŸ‘¶ðŸ»-05-Pale" mask="url(#mask-4)" fill="#FFDBB4">
                                    <g transform="translate(-85.443429, 0.000000)" id="Color">
                                        <rect x="0" y="0" width="704.940245" height="649.944907"></rect>
                                    </g>
                                </g>
                                <path d="M117.484715,249.971811 C117.484715,332.552741 184.429785,399.497812 267.010715,399.497812 C349.591645,399.497812 416.536716,332.552741 416.536716,249.971811 L416.536716,249.971811 L416.536716,271.278361 C416.536716,353.859291 349.591645,420.804362 267.010715,420.804362 C184.429785,420.804362 117.484715,353.859291 117.484715,271.278361 Z" id="Neck-Shadow" fill-opacity="0.100000001" fill="#000000" mask="url(#mask-4)"></path>
                            </g>
                            <g id="Clothing/Hoodie" transform="translate(0.000000, 452.764186)">
                                <mask id="mask-6" fill="white">
                                    <use xlink:href="#path-5"></use>
                                </mask>
                                <use id="Hoodie" fill="#B7C1DB" fill-rule="evenodd" xlink:href="#path-5"></use>
                                <g id="Color/Palette/Slate" mask="url(#mask-6)" fill="#293347" fill-rule="evenodd">
                                    <rect id="ðŸ–Color" x="0" y="0" width="705.050894" height="293.155847"></rect>
                                </g>
                                <path d="M272.448937,164.53707 L272.450735,293.155847 L253.753136,293.155847 L253.749851,154.971593 C259.636685,158.462704 265.895582,161.663104 272.448937,164.53707 Z M451.416758,154.971593 L451.413473,262.486622 C451.413473,267.649822 447.227873,271.835422 442.064673,271.835422 C436.901474,271.835422 432.715873,267.649822 432.715873,262.486622 L432.717672,164.53707 C439.271027,161.663104 445.529924,158.462704 451.416758,154.971593 Z" id="Straps" fill="#F4F4F4" fill-rule="evenodd" mask="url(#mask-6)"></path>
                                <path d="M462.200834,33.9104242 C502.404742,41.4971479 530.210499,56.6125687 530.210499,86.1017174 C530.210499,138.636091 441.964025,181.223615 352.583304,181.223615 C263.202584,181.223615 174.956109,138.636091 174.956109,86.1017174 C174.956109,56.6126011 202.761805,41.4971811 242.965642,33.9104492 C218.697126,42.8375904 203.002509,57.8463754 203.002509,82.821652 C203.002509,137.167555 277.315329,181.223615 352.583304,181.223615 C427.85128,181.223615 502.1641,137.167555 502.1641,82.821652 C502.1641,58.3659955 487.115754,43.4664314 463.703779,34.474747 Z" id="Shadow" fill-opacity="0.16" fill="#000000" fill-rule="evenodd" mask="url(#mask-6)"></path>
                            </g>
                            <g id="Face" stroke-width="1" fill-rule="evenodd" transform="translate(202.928144, 218.392137)">
                                <g id="Mouth/Smile" transform="translate(5.340214, 138.492575)">
                                    <mask id="mask-8" fill="white">
                                        <use xlink:href="#path-7"></use>
                                    </mask>
                                    <use id="Mouth" fill-opacity="0.699999988" fill="#000000" fill-rule="evenodd" xlink:href="#path-7"></use>
                                    <path d="M116.832508,5.31159285 L173.855142,5.31159285 C180.938194,5.31159285 186.680142,11.0535409 186.680142,18.1365927 L186.680142,34.9793358 C186.680142,42.0623877 180.938194,47.8043357 173.855142,47.8043357 L116.832508,47.8043357 C109.749456,47.8043357 104.007508,42.0623877 104.007508,34.9793358 L104.007508,18.1365927 C104.007508,11.0535409 109.749456,5.31159285 116.832508,5.31159285 Z" id="Teeth" fill="#FFFFFF" fill-rule="evenodd" mask="url(#mask-8)"></path>
                                    <g id="Tongue" stroke-width="1" fill-rule="evenodd" mask="url(#mask-8)" fill="#FF4F6D">
                                        <g transform="translate(101.340649, 63.739114)">
                                            <ellipse cx="29.3354509" cy="29.2137607" rx="29.3354509" ry="29.2137607"></ellipse>
                                            <ellipse cx="56.0040426" cy="29.2137607" rx="29.3354509" ry="29.2137607"></ellipse>
                                        </g>
                                    </g>
                                </g>
                                <g id="Nose/Default" transform="translate(74.763000, 106.532750)" fill="#000000" fill-opacity="0.16">
                                    <path d="M42.7499995,21.1819352 C42.7499995,32.880395 57.1048695,42.3638704 74.8124991,42.3638704 L74.8124991,42.3638704 C92.5201286,42.3638704 106.874999,32.880395 106.874999,21.1819352" id="Nose"></path>
                                </g>
                                <g id="Eyes/Happy-ðŸ˜" transform="translate(0.000000, 21.306550)" fill="#000000" fill-opacity="0.599999964">
                                    <path d="M43.1839646,59.6154899 C48.1182922,49.5266409 59.2288193,42.4927428 72.1442124,42.4927428 C85.014013,42.4927428 96.0916678,49.4770679 101.051974,59.5087604 C102.525474,62.4887592 100.428677,64.9275345 98.3136022,63.1203743 C91.7636549,57.5239752 82.462123,54.0289605 72.1442124,54.0289605 C62.1490074,54.0289605 53.1075983,57.3087721 46.5974179,62.6014805 C44.2171234,64.5366349 41.740774,62.5662732 43.1839646,59.6154899 Z" id="Squint"></path>
                                    <path d="M198.174311,59.6154899 C203.108639,49.5266409 214.219166,42.4927428 227.134559,42.4927428 C240.00436,42.4927428 251.082014,49.4770679 256.04232,59.5087604 C257.515821,62.4887592 255.419024,64.9275345 253.303949,63.1203743 C246.754001,57.5239752 237.45247,54.0289605 227.134559,54.0289605 C217.139354,54.0289605 208.097945,57.3087721 201.587764,62.6014805 C199.20747,64.5366349 196.731121,62.5662732 198.174311,59.6154899 Z" id="Squint"></path>
                                </g>
                                <g id="Eyebrow/Natural/Default-Natural" fill="#000000" fill-opacity="0.599999964">
                                    <path d="M69.5942567,16.4433916 C54.197429,18.5033949 30.1792788,31.8198385 32.174508,47.2094892 C32.2400714,47.7131869 33.0089166,47.8695768 33.3410643,47.4486811 C39.9919184,39.0013761 91.3733112,26.5581399 110.079586,29.1333589 C111.791612,29.3695978 112.923339,27.617326 111.756483,26.5251178 C101.758515,17.1717261 83.3870129,14.5844863 69.5942567,16.4433916" id="Eyebrow" transform="translate(72.145760, 31.785763) rotate(5.000000) translate(-72.145760, -31.785763) "></path>
                                    <path d="M227.266687,16.4433916 C211.86986,18.5033949 187.85171,31.8198385 189.846939,47.2094892 C189.912502,47.7131869 190.681347,47.8695768 191.013495,47.4486811 C197.664349,39.0013761 249.045742,26.5581399 267.752017,29.1333589 C269.464043,29.3695978 270.595769,27.617326 269.428914,26.5251178 C259.430946,17.1717261 241.059444,14.5844863 227.266687,16.4433916" id="Eyebrow" transform="translate(229.818191, 31.785763) scale(-1, 1) rotate(5.000000) translate(-229.818191, -31.785763) "></path>
                                </g>
                            </g>
                            <g id="Top" stroke-width="1" fill-rule="evenodd">
                                <mask id="mask-10" fill="white">
                                    <use xlink:href="#path-9"></use>
                                </mask>
                                <g id="Mask"></g>
                                <g id="Top/Short-Hair/Short-Flat-Low" mask="url(#mask-10)">
                                    <g transform="translate(-2.670107, 0.000000)">
                                        <mask id="mask-12" fill="white">
                                            <use xlink:href="#path-11"></use>
                                        </mask>
                                        <use id="Short-Hair" stroke="none" fill="#1F3140" fill-rule="evenodd" xlink:href="#path-11"></use>
                                        <g id="Color/Hair/Brown-Dark" stroke="none" fill="none" mask="url(#mask-12)" fill-rule="evenodd">
                                            <g transform="translate(2.670308, 0.000000)" fill="#4A312C" id="Color">
                                                <rect x="0" y="0" width="705.687796" height="745.93677"></rect>
                                            </g>
                                        </g>
                                    </g>
                                </g>
                            </g>
                        </g>
                    </g>
                </g>
                <path d="M194.422268,424.546057 C194.422268,402.507972 212.278915,384.647015 234.318579,384.647015 L905.681407,384.647015 C927.712578,384.647015 945.577717,402.517031 945.577717,424.546057 L945.577717,849.982029 C945.577717,872.020114 927.721071,889.88107 905.681407,889.88107 L234.318579,889.88107 C212.287407,889.88107 194.422268,872.011055 194.422268,849.982029 L194.422268,424.546057 Z" id="Case" stroke="#7510F7" stroke-width="11.3999999" fill="#FFFFFF"></path>
                <path d="M587.069337,600.820674 C591.138522,595.935621 593.869467,589.147602 593.122542,582.367319 C587.2833,582.59552 580.183622,586.250607 576.00551,591.116321 C572.255324,595.452144 568.968076,602.356198 569.839488,608.985636 C576.359521,609.488452 583.019603,605.697992 587.069337,600.820674 M617.292569,667.084117 C617.14863,667.478635 614.845611,675.37285 609.239783,683.499133 C604.412002,690.542428 599.378039,697.562516 591.457521,697.701758 C583.692613,697.852603 581.191193,693.122262 572.298117,693.122262 C563.408931,693.122262 560.631303,697.562516 553.27098,697.852603 C545.622779,698.150425 539.822439,690.244606 534.932414,683.236122 C524.946182,668.898124 517.336884,642.709134 527.55653,625.048681 C532.652737,616.268736 541.728654,610.722286 551.594289,610.571441 C559.110222,610.447671 566.182668,615.588 570.769254,615.588 C575.359731,615.588 583.953259,609.372418 593.005835,610.285223 C596.779362,610.455407 607.415263,611.805275 614.254296,621.741697 C613.690212,622.097536 601.56046,629.106021 601.692728,643.722502 C601.844448,661.1973 617.113618,667.014497 617.292569,667.084117" id="apple_logo" fill="#E2D7F4"></path>
                <path d="M686.950042,422.8703 L697.845198,429.308347 L697.845198,462.658291 C697.845198,467.380326 701.673164,471.208291 706.395198,471.208291 L985.097815,471.208291 C989.819849,471.208291 993.647815,467.380326 993.647815,462.658291 L993.647815,383.08231 C993.647815,378.360275 989.819849,374.53231 985.097815,374.53231 L706.395198,374.53231 C701.673164,374.53231 697.845198,378.360275 697.845198,383.08231 L697.845198,416.432253 L686.950042,422.8703 Z" id="Rectangle-29" stroke="#7510F7" stroke-width="22.7999997" fill="#7510F7"></path>
                <g id="Group-85" transform="translate(848.801093, 422.756763) scale(1, -1) translate(-848.801093, -422.756763) translate(719.301093, 396.756763)" fill="#FFFFFF">
                    <rect id="Rectangle-11" opacity="0.7" transform="translate(73.676855, 5.973799) scale(1, -1) translate(-73.676855, -5.973799) " x="0" y="0" width="147.35371" height="11.9475981" rx="5.97379905"></rect>
                    <path d="M163.283841,0 L232.978163,0 C236.277401,2.94665347e-15 238.951962,2.67456094 238.951962,5.97379905 C238.951962,9.27303717 236.277401,11.9475981 232.978163,11.9475981 L163.283841,11.9475981 C159.984603,11.9475981 157.310042,9.27303717 157.310042,5.97379905 C157.310042,2.67456094 159.984603,-2.8211821e-16 163.283841,0 Z" id="Rectangle-11" opacity="0.7" transform="translate(198.131002, 5.973799) scale(1, -1) translate(-198.131002, -5.973799) "></path>
                    <rect id="Rectangle-11" transform="translate(34.847161, 45.799126) scale(1, -1) translate(-34.847161, -45.799126) " x="0" y="39.825327" width="69.6943223" height="11.9475981" rx="5.97379905"></rect>
                    <rect id="Rectangle-11" opacity="0.7" transform="translate(139.388645, 45.799126) scale(1, -1) translate(-139.388645, -45.799126) " x="79.650654" y="39.825327" width="119.475981" height="11.9475981" rx="5.97379905"></rect>
                    <rect id="Rectangle-11" opacity="0.7" transform="translate(233.973796, 45.799126) scale(1, -1) translate(-233.973796, -45.799126) " x="209.082967" y="39.825327" width="49.7816588" height="11.9475981" rx="5.97379905"></rect>
                </g>
                <g id="Group-87" transform="translate(79.799999, 165.299998)">
                    <path d="M8.65005056,59.7379905 L19.5452069,66.1760375 L19.5452069,99.5259813 C19.5452069,104.248016 23.3731723,108.075981 28.0952068,108.075981 L137.540184,108.075981 C142.262218,108.075981 146.090183,104.248016 146.090183,99.5259813 L146.090183,19.9499997 C146.090183,15.2279652 142.262218,11.3999999 137.540184,11.3999999 L28.0952068,11.3999999 C23.3731723,11.3999999 19.5452069,15.2279652 19.5452069,19.9499997 L19.5452069,53.2999436 L8.65005056,59.7379905 Z" id="Rectangle-29" stroke="#7510F7" stroke-width="22.7999997" fill="#7510F7" transform="translate(78.745092, 59.737991) scale(-1, 1) translate(-78.745092, -59.737991) "></path>
                    <path d="M52.5818771,52.51965 C53.4634279,52.51965 54.2127443,52.8281919 54.8298301,53.4452777 C55.4469159,54.0623635 55.7554578,54.8116799 55.7554578,55.6932307 L55.7554578,87.4290382 C55.7554578,88.3105891 55.4469159,89.0599054 54.8298301,89.6769912 C54.2127443,90.2940771 53.4634279,90.602619 52.5818771,90.602619 L42.0032746,90.602619 C41.1217237,90.602619 40.3724074,90.2940771 39.7553216,89.6769912 C39.1382357,89.0599054 38.8296938,88.3105891 38.8296938,87.4290382 L38.8296938,55.6932307 C38.8296938,54.8116799 39.1382357,54.0623635 39.7553216,53.4452777 C40.3724074,52.8281919 41.1217237,52.51965 42.0032746,52.51965 L52.5818771,52.51965 Z M47.2925758,85.3133177 C48.1741267,85.3133177 48.923443,85.0047758 49.5405289,84.38769 C50.1576147,83.7706042 50.4661566,83.0212878 50.4661566,82.139737 C50.4661566,81.2581861 50.1576147,80.5088697 49.5405289,79.8917839 C48.923443,79.2746981 48.1741267,78.9661562 47.2925758,78.9661562 C46.4110249,78.9661562 45.6617086,79.2746981 45.0446228,79.8917839 C44.427537,80.5088697 44.1189951,81.2581861 44.1189951,82.139737 C44.1189951,83.0212878 44.427537,83.7706042 45.0446228,84.38769 C45.6617086,85.0047758 46.4110249,85.3133177 47.2925758,85.3133177 Z M89.6069858,33.610398 C89.6069858,35.1971884 89.3425207,36.7839788 88.8135906,38.3707692 C88.4609698,39.25232 87.843886,40.4864897 86.9623352,42.07328 C85.9926306,43.9245355 85.4196216,45.2909376 85.2433122,46.1724885 L98.5987979,46.1724885 C100.802674,46.1724885 102.675967,46.9438443 104.21868,48.4865578 C105.761394,50.0292713 106.53275,51.8144105 106.53275,53.8419753 C106.53275,55.0761449 106.290324,56.2662377 105.805471,57.4122536 C105.320618,58.5582696 104.725571,59.5279741 104.020332,60.3213693 L103.888099,60.3213693 C104.593339,61.9963154 104.857804,63.803492 104.681494,65.7429031 C104.505185,67.6823142 103.844022,69.4013371 102.698006,70.8999718 C103.226936,72.5749179 103.271013,74.3380176 102.830239,76.1892731 C102.389464,78.0405285 101.640146,79.583242 100.582286,80.8174116 C101.111216,83.1094415 100.802674,85.0929295 99.6566581,86.7678755 C98.5106422,88.4428216 96.3949217,89.5447587 93.3094966,90.0736888 C91.4582412,90.4263096 88.5932024,90.602619 84.7143821,90.602619 L84.3176845,90.602619 C81.4967245,90.602619 78.5876089,90.1177657 75.5903375,89.1480611 C73.8272377,88.619131 71.4250128,87.6714638 68.3836645,86.3050617 C65.3423163,84.9386595 63.0723239,84.2554575 61.5736892,84.2554575 C61.1329148,84.2554575 60.7582546,84.1011855 60.4497127,83.7926436 C60.1411708,83.4841017 59.9868988,83.1094415 59.9868988,82.6686671 L59.9868988,54.3709054 C59.9868988,53.930131 60.1632082,53.5775102 60.5158289,53.3130452 C62.2789287,51.4617897 64.438728,48.6849066 66.995223,44.9823957 C69.1109435,41.8969707 70.8740432,39.6930945 72.2845242,38.3707692 C73.1660751,37.4892183 73.8713146,36.2991255 74.4002447,34.8004908 C74.7528655,33.9189399 75.149563,32.508461 75.5903375,30.5690498 L75.5903375,30.4368173 C76.1192676,28.4092525 76.6041209,26.866539 77.0448953,25.8086787 C77.9264462,23.8692676 78.9402276,22.899563 80.0862435,22.899563 C82.4664291,22.899563 84.4499171,23.47257 86.0367074,24.6185859 C88.416893,26.3816857 89.6069858,29.3789571 89.6069858,33.610398 Z" id="thumbs-up" fill="#FFFFFF"></path>
                </g>
                <g id="Group-88" transform="translate(142.375544, 618.210113)">
                    <g id="Group-87" fill="#7510F7" stroke="#7510F7" stroke-width="22.7999997">
                        <path d="M8.65005056,59.7379905 L19.5452069,66.1760375 L19.5452069,99.5259813 C19.5452069,104.248016 23.3731723,108.075981 28.0952068,108.075981 L137.540184,108.075981 C142.262218,108.075981 146.090183,104.248016 146.090183,99.5259813 L146.090183,19.9499997 C146.090183,15.2279652 142.262218,11.3999999 137.540184,11.3999999 L28.0952068,11.3999999 C23.3731723,11.3999999 19.5452069,15.2279652 19.5452069,19.9499997 L19.5452069,53.2999436 L8.65005056,59.7379905 Z" id="Rectangle-29" transform="translate(78.745092, 59.737991) scale(-1, 1) translate(-78.745092, -59.737991) "></path>
                    </g>
                    <path d="M75.5903341,24.8908294 C81.8525608,24.8908294 87.6474557,26.4563866 92.9750211,29.5874988 C98.3025864,32.7186111 102.531926,36.947951 105.663039,42.2755163 C108.794151,47.6030817 110.359708,53.3979766 110.359708,59.6602033 C110.359708,65.92243 108.794151,71.7173249 105.663039,77.0448903 C102.531926,82.3724556 98.3025864,86.6017955 92.9750211,89.7329078 C87.6474557,92.86402 81.8525608,94.4295772 75.5903341,94.4295772 C69.3281074,94.4295772 63.5332125,92.86402 58.2056471,89.7329078 C52.8780818,86.6017955 48.6487419,82.3724556 45.5176296,77.0448903 C42.3865174,71.7173249 40.8209602,65.92243 40.8209602,59.6602033 C40.8209602,53.3979766 42.3865174,47.6030817 45.5176296,42.2755163 C48.6487419,36.947951 52.8780818,32.7186111 58.2056471,29.5874988 C63.5332125,26.4563866 69.3281074,24.8908294 75.5903341,24.8908294 Z M99.9849755,41.71472 C98.115655,39.2846032 95.9659342,37.1348824 93.5358174,35.2655619 L84.7032748,44.2383036 C87.3203252,45.8272259 89.4233115,47.9302122 91.0122338,50.5472626 L99.9849755,41.71472 Z M75.5903341,73.1193158 C79.3289772,73.1193158 82.5068218,71.8107917 85.1238721,69.1937413 C87.7409225,66.5766909 89.0494466,63.3988464 89.0494466,59.6602033 C89.0494466,55.9215602 87.7409225,52.7437157 85.1238721,50.1266653 C82.5068218,47.5096149 79.3289772,46.2010908 75.5903341,46.2010908 C71.851691,46.2010908 68.6738465,47.5096149 66.0567961,50.1266653 C63.4397457,52.7437157 62.1312216,55.9215602 62.1312216,59.6602033 C62.1312216,63.3988464 63.4397457,66.5766909 66.0567961,69.1937413 C68.6738465,71.8107917 71.851691,73.1193158 75.5903341,73.1193158 Z M57.6448508,35.2655619 C55.214734,37.1348824 53.0650132,39.2846032 51.1956927,41.71472 L60.1684344,50.5472626 C61.7573567,47.9302122 63.860343,45.8272259 66.4773934,44.2383036 L57.6448508,35.2655619 Z M51.1956927,77.6056866 C53.0650132,80.0358034 55.214734,82.1855242 57.6448508,84.0548447 L66.4773934,75.082103 C63.860343,73.4931807 61.7573567,71.3901944 60.1684344,68.773144 L51.1956927,77.6056866 Z M93.5358174,84.0548447 C95.9659342,82.1855242 98.115655,80.0358034 99.9849755,77.6056866 L91.0122338,68.773144 C89.4233115,71.3901944 87.3203252,73.4931807 84.7032748,75.082103 L93.5358174,84.0548447 Z" id="life-ring" fill="#FFFFFF"></path>
                </g>
                <g id="Group-89" transform="translate(870.411561, 717.773430)">
                    <path d="M23.1762406,59.7379905 L24.2705469,60.384626 C30.3447646,63.9739365 34.071397,70.5046674 34.071397,77.5601101 L34.071397,96.0786014 C34.071397,102.704571 39.4428068,108.075981 46.0687767,108.075981 L152.066374,108.075981 C156.788408,108.075981 160.616374,104.248016 160.616374,99.5259813 L160.616374,19.9499997 C160.616374,15.2279652 156.788408,11.3999999 152.066374,11.3999999 L42.6213968,11.3999999 C37.8993623,11.3999999 34.071397,15.2279652 34.071397,19.9499997 L34.071397,53.2999436 L23.1762406,59.7379905 Z" id="Rectangle-29" stroke="#7510F7" stroke-width="22.7999997" fill="#7510F7"></path>
                    <path d="M128.052939,60.1580199 C128.052939,65.7926229 126.644288,71.0067319 123.826987,75.8003488 C121.009687,80.5939657 117.204227,84.3994254 112.41061,87.2167259 C107.616993,90.0340265 102.402884,91.4426777 96.7682814,91.4426777 C91.1336784,91.4426777 85.9195695,90.0340265 81.1259525,87.2167259 C76.3323356,84.3994254 72.5268759,80.5939657 69.7095754,75.8003488 C66.8922749,71.0067319 65.4836236,65.7926229 65.4836236,60.1580199 C65.4836236,54.5234169 66.8922749,49.3093079 69.7095754,44.515691 C72.5268759,39.7220741 76.3323356,35.9166144 81.1259525,33.0993138 C85.9195695,30.2820133 91.1336784,28.8733621 96.7682814,28.8733621 C102.402884,28.8733621 107.616993,30.2820133 112.41061,33.0993138 C117.204227,35.9166144 121.009687,39.7220741 123.826987,44.515691 C126.644288,49.3093079 128.052939,54.5234169 128.052939,60.1580199 Z M97.6513161,39.2174828 C94.2873738,39.2174828 91.3859741,39.9323211 88.947117,41.3619956 C86.6764563,42.6234738 84.6580913,44.5997902 82.8920219,47.2909429 C82.6397263,47.6273377 82.5556271,47.9847559 82.6397263,48.3631993 C82.7238255,48.7416427 82.9340706,49.0570123 83.2704654,49.3093079 L87.6856388,52.5891511 C87.9379345,52.8414467 88.2743293,52.9465692 88.6948214,52.9045206 C89.1153134,52.862472 89.4517082,52.6732502 89.7040039,52.3368554 C91.0495812,50.7389825 92.1008123,49.6457027 92.8576992,49.0570123 C94.0350782,48.2160262 95.3806555,47.7955341 96.8944293,47.7955341 C98.3241038,47.7955341 99.6486559,48.1950029 100.868085,48.9939384 C102.087515,49.7928739 102.697229,50.781033 102.697229,51.958412 C102.697229,52.8834953 102.318785,53.6824328 101.561898,54.3552205 C101.057307,54.7757125 100.090173,55.4064516 98.6604986,56.2474377 L98.408203,56.3735855 C96.3057388,57.5509644 94.8340156,58.6021975 93.9930295,59.5272808 C92.4792558,61.1251538 91.7223689,63.017371 91.7223689,65.2039324 L91.7223689,65.7085237 C91.7223689,66.1290158 91.869542,66.4864359 92.1638862,66.7807801 C92.4582305,67.0751244 92.8156506,67.2222975 93.2361427,67.2222975 L100.30042,67.2222975 C100.720912,67.2222975 101.078332,67.0751244 101.372677,66.7807801 C101.667021,66.4864359 101.814194,66.1290158 101.814194,65.7085237 L101.814194,65.5823759 C101.814194,64.9095882 102.150589,64.3208977 102.823376,63.8163065 C103.243869,63.4799117 104.042806,62.9753204 105.220185,62.3025327 C107.406746,60.9569554 108.962571,59.7795764 109.887654,58.7703939 C111.485527,57.0043245 112.284463,54.7757125 112.284463,52.0845598 C112.284463,49.7298 111.569624,47.5642638 110.13995,45.5879474 C108.710275,43.611631 106.860107,42.0558086 104.589446,40.9204783 C102.318785,39.785148 100.006076,39.2174828 97.6513161,39.2174828 Z M96.7682814,70.5021406 C95.1704085,70.5021406 93.8038078,71.0698058 92.6684775,72.2051361 C91.5331472,73.3404664 90.965482,74.7070671 90.965482,76.30494 C90.965482,77.902813 91.5331472,79.2694137 92.6684775,80.404744 C93.8038078,81.5400743 95.1704085,82.1077395 96.7682814,82.1077395 C98.3661544,82.1077395 99.7327551,81.5400743 100.868085,80.404744 C102.003416,79.2694137 102.571081,77.902813 102.571081,76.30494 C102.571081,74.7070671 102.003416,73.3404664 100.868085,72.2051361 C99.7327551,71.0698058 98.3661544,70.5021406 96.7682814,70.5021406 Z" id="question-circle" fill="#FFFFFF"></path>
                </g>
            </g>
            <g id="Group-33">
                <circle id="Oval" fill="#7510F7" fill-rule="nonzero" opacity="0.253" cx="95" cy="627" r="26"></circle>
                <circle id="Oval" fill="#7510F7" fill-rule="nonzero" opacity="0.451" cx="24" cy="269" r="24"></circle>
                <circle id="Oval" fill="#7510F7" fill-rule="nonzero" opacity="0.494" cx="98.5" cy="142.5" r="15.5"></circle>
                <g id="Group" opacity="0.7" stroke-linecap="round" transform="translate(324.000000, 0.000000)" stroke="#7510F7" stroke-width="12">
                    <path d="M49.192,36.897 L0.65,12.164 M12.164,49.192 L36.897,0.65" id="Shape"></path>
                </g>
                <g id="Group" opacity="0.7" stroke-linecap="round" transform="translate(1305.000000, 558.000000)" stroke="#7510F7" stroke-width="12">
                    <path d="M15.872,0.397 L27.046,42.099 M42.366,15.605 L0.664,26.779" id="Shape"></path>
                </g>
                <path d="M251.5,513 C260.06,513 267,506.06 267,497.5 C267,488.94 260.06,482 251.5,482 C242.94,482 236,488.94 236,497.5 C236,506.06 242.94,513 251.5,513 Z" id="Path" fill="#7510F7" fill-rule="nonzero" opacity="0.212"></path>
                <circle id="Oval" fill="#7510F7" fill-rule="nonzero" opacity="0.15" cx="1056" cy="75" r="26"></circle>
                <circle id="Oval" fill="#7510F7" fill-rule="nonzero" opacity="0.304" cx="1159.5" cy="189.5" r="15.5"></circle>
                <circle id="Oval" fill="#7510F7" fill-rule="nonzero" opacity="0.158" cx="1418.468" cy="407" r="24"></circle>
                <g id="Group" opacity="0.7" stroke-linecap="round" transform="translate(1336.000000, 130.000000)" stroke="#7510F7" stroke-width="12">
                    <path d="M0.336,38.504 L41.029,4.359 M3.295,0.336 L37.441,41.029" id="Shape"></path>
                </g>
            </g>
        </g>
    </g>
</svg>